<?xml version="1.0" standalone="no"?>
<!DOCTYPE svg PUBLIC "-//W3C//DTD SVG 20010904//EN"
 "http://www.w3.org/TR/2001/REC-SVG-20010904/DTD/svg10.dtd">
<svg version="1.0" xmlns="http://www.w3.org/2000/svg"
 width="728.000000pt" height="512.000000pt" viewBox="0 0 728.000000 512.000000"
 preserveAspectRatio="xMidYMid meet">
<metadata>
Created by potrace 1.16, written by Peter Selinger 2001-2019
</metadata>
<g transform="translate(0.000000,512.000000) scale(0.100000,-0.100000)"
fill="#000000" stroke="none">
<path d="M3894 4100 c-63 -40 -69 -90 -69 -497 l0 -313 -1150 -2 -1150 -3 -31
-22 c-17 -13 -40 -40 -50 -60 -18 -35 -19 -73 -22 -567 -2 -299 1 -564 7 -609
10 -87 26 -117 81 -154 l33 -23 1163 0 1163 0 3 -377 c3 -339 5 -381 21 -410
20 -37 63 -63 103 -63 35 0 101 32 139 68 34 32 458 384 1219 1012 504 416
496 408 496 516 0 111 -34 144 -630 604 -74 57 -193 150 -265 205 -109 85
-373 286 -685 520 -36 27 -94 72 -130 101 -118 94 -184 114 -246 74z"/>
</g>
</svg>
